<?xml version="1.0" encoding="UTF-8"?>
<svg xmlns="http://www.w3.org/2000/svg" version="2.0" viewBox="-150 0 5384.819999999999 9.870000000000001" preserveAspectRatio="xMinYMin meet" >
<polyline points="0.0,4.86 76.072,4.05 108.356,4.68 217.092,4.72 245.356,4.64 288.974,5.6 355.32399999999996,4.85 373.966,4.58 391.66999999999996,4.95 428.10999999999996,5.19 491.65999999999997,5.33 562.8979999999999,5.16 608.5759999999999,5.17 629.4639999999999,5.32 650.164,5.21 674.432,5.13 733.852,5.73 814.7059999999999,5.87 865.54,4.7 915.7119999999999,4.76 946.5919999999999,4.32 1036.9639999999997,4.86 " style="fill:white;stroke:red;stroke-width:4" />
<text x="0.0" y="165" style="writing-mode: tb; glyph-orientation-vertical: 0;">
salida
</text>
<text x="76.072" y="165" style="writing-mode: tb; glyph-orientation-vertical: 0;">
Tramo 1
</text>
<text x="108.356" y="165" style="writing-mode: tb; glyph-orientation-vertical: 0;">
Tramo 2
</text>
<text x="217.092" y="165" style="writing-mode: tb; glyph-orientation-vertical: 0;">
Tramo 3
</text>
<text x="245.356" y="165" style="writing-mode: tb; glyph-orientation-vertical: 0;">
Tramo 4
</text>
<text x="288.974" y="165" style="writing-mode: tb; glyph-orientation-vertical: 0;">
Tramo 5
</text>
<text x="355.32399999999996" y="165" style="writing-mode: tb; glyph-orientation-vertical: 0;">
Tramo 6
</text>
<text x="373.966" y="165" style="writing-mode: tb; glyph-orientation-vertical: 0;">
Tramo 7
</text>
<text x="391.66999999999996" y="165" style="writing-mode: tb; glyph-orientation-vertical: 0;">
Tramo 8
</text>
<text x="428.10999999999996" y="165" style="writing-mode: tb; glyph-orientation-vertical: 0;">
Tramo 9
</text>
<text x="491.65999999999997" y="165" style="writing-mode: tb; glyph-orientation-vertical: 0;">
Tramo 10
</text>
<text x="562.8979999999999" y="165" style="writing-mode: tb; glyph-orientation-vertical: 0;">
Tramo 11
</text>
<text x="608.5759999999999" y="165" style="writing-mode: tb; glyph-orientation-vertical: 0;">
Tramo 12
</text>
<text x="629.4639999999999" y="165" style="writing-mode: tb; glyph-orientation-vertical: 0;">
Tramo 13
</text>
<text x="650.164" y="165" style="writing-mode: tb; glyph-orientation-vertical: 0;">
Tramo 14
</text>
<text x="674.432" y="165" style="writing-mode: tb; glyph-orientation-vertical: 0;">
Tramo 15
</text>
<text x="733.852" y="165" style="writing-mode: tb; glyph-orientation-vertical: 0;">
Tramo 16
</text>
<text x="814.7059999999999" y="165" style="writing-mode: tb; glyph-orientation-vertical: 0;">
Tramo 17
</text>
<text x="865.54" y="165" style="writing-mode: tb; glyph-orientation-vertical: 0;">
Tramo 18
</text>
<text x="915.7119999999999" y="165" style="writing-mode: tb; glyph-orientation-vertical: 0;">
Tramo 19
</text>
<text x="946.5919999999999" y="165" style="writing-mode: tb; glyph-orientation-vertical: 0;">
Tramo 20
</text>
<text x="1036.9639999999997" y="165" style="writing-mode: tb; glyph-orientation-vertical: 0;">
Meta
</text>
</svg>