<?xml version="1.0" encoding="utf-8"?><svg width="auto" height="1920" style="overflow:visible " version="1.1" xmlns="http://www.w3.org/2000/svg"><rect x="20" y="20" width="200" height="40" style="fill:white;stroke:black;stroke-width:1" /><text x="30" y="30" font-size="10" style="fill:blue">circuito</text><text x="30" y="40" font-size="8" style="fill:black">nombre: Albert Park</text><rect x="240" y="20" width="200" height="40" style="fill:white;stroke:black;stroke-width:1" /><text x="250" y="30" font-size="10" style="fill:blue">longitud</text><path d="M220 40 C240 40 220 40 240 40" style="fill:transparent;stroke:black" /><text x="250" y="40" font-size="8" style="fill:black">unidad: metros</text><rect x="306" y="20" width="137" height="40" style="fill:green;stroke:black;stroke-width:1" /><text x="316" y="30" font-size="8" style="fill:white">5278</text><rect x="240" y="70" width="200" height="40" style="fill:white;stroke:black;stroke-width:1" /><text x="250" y="80" font-size="10" style="fill:blue">anchura</text><path d="M220 40 C240 40 220 90 240 90" style="fill:transparent;stroke:black" /><text x="250" y="90" font-size="8" style="fill:black">unidad: metros</text><rect x="306" y="70" width="137" height="40" style="fill:green;stroke:black;stroke-width:1" /><text x="316" y="80" font-size="8" style="fill:white">14.53</text><rect x="240" y="120" width="200" height="40" style="fill:white;stroke:black;stroke-width:1" /><text x="250" y="130" font-size="10" style="fill:blue">fechaCarrera</text><path d="M220 40 C240 40 220 140 240 140" style="fill:transparent;stroke:black" /><rect x="306" y="120" width="137" height="40" style="fill:green;stroke:black;stroke-width:1" /><text x="316" y="130" font-size="8" style="fill:white">24/03/2024</text><rect x="240" y="170" width="200" height="40" style="fill:white;stroke:black;stroke-width:1" /><text x="250" y="180" font-size="10" style="fill:blue">horaCarrera</text><path d="M220 40 C240 40 220 190 240 190" style="fill:transparent;stroke:black" /><rect x="306" y="170" width="137" height="40" style="fill:green;stroke:black;stroke-width:1" /><text x="316" y="180" font-size="8" style="fill:white">05:00</text><rect x="240" y="220" width="200" height="40" style="fill:white;stroke:black;stroke-width:1" /><text x="250" y="230" font-size="10" style="fill:blue">numeroVueltas</text><path d="M220 40 C240 40 220 240 240 240" style="fill:transparent;stroke:black" /><rect x="306" y="220" width="137" height="40" style="fill:green;stroke:black;stroke-width:1" /><text x="316" y="230" font-size="8" style="fill:white">58</text><rect x="240" y="270" width="200" height="40" style="fill:white;stroke:black;stroke-width:1" /><text x="250" y="280" font-size="10" style="fill:blue">localidad</text><path d="M220 40 C240 40 220 290 240 290" style="fill:transparent;stroke:black" /><rect x="306" y="270" width="137" height="40" style="fill:green;stroke:black;stroke-width:1" /><text x="316" y="280" font-size="8" style="fill:white">Melbourne</text><rect x="240" y="320" width="200" height="40" style="fill:white;stroke:black;stroke-width:1" /><text x="250" y="330" font-size="10" style="fill:blue">pais</text><path d="M220 40 C240 40 220 340 240 340" style="fill:transparent;stroke:black" /><rect x="306" y="320" width="137" height="40" style="fill:green;stroke:black;stroke-width:1" /><text x="316" y="330" font-size="8" style="fill:white">Australia</text><rect x="240" y="370" width="200" height="40" style="fill:white;stroke:black;stroke-width:1" /><text x="250" y="380" font-size="10" style="fill:blue">referencias</text><path d="M220 40 C240 40 220 390 240 390" style="fill:transparent;stroke:black" /><rect x="460" y="370" width="200" height="40" style="fill:white;stroke:black;stroke-width:1" /><text x="470" y="380" font-size="10" style="fill:blue">referencia</text><path d="M440 390 C460 390 440 390 460 390" style="fill:transparent;stroke:black" /><rect x="526" y="370" width="137" height="40" style="fill:green;stroke:black;stroke-width:1" /><text x="536" y="380" font-size="8" style="fill:white">https://www.formula1.com/en/racing/2024/australia</text><rect x="460" y="420" width="200" height="40" style="fill:white;stroke:black;stroke-width:1" /><text x="470" y="430" font-size="10" style="fill:blue">referencia</text><path d="M440 390 C460 390 440 440 460 440" style="fill:transparent;stroke:black" /><rect x="526" y="420" width="137" height="40" style="fill:green;stroke:black;stroke-width:1" /><text x="536" y="430" font-size="8" style="fill:white">https://lebalap.academy/f1/circuito-albert-park/</text><rect x="460" y="470" width="200" height="40" style="fill:white;stroke:black;stroke-width:1" /><text x="470" y="480" font-size="10" style="fill:blue">referencia</text><path d="M440 390 C460 390 440 490 460 490" style="fill:transparent;stroke:black" /><rect x="526" y="470" width="137" height="40" style="fill:green;stroke:black;stroke-width:1" /><text x="536" y="480" font-size="8" style="fill:white">https://www.dazn.com/es-ES/news/motor/circuito-de-albert-park-donde-esta-como-es-caracteristicas-como-llegar-y-fotos-del-escenario-del-gp-de-australia-del-mundial-de-f1/l72phjxopbx61bsz5jkudezvy</text><rect x="240" y="570" width="200" height="40" style="fill:white;stroke:black;stroke-width:1" /><text x="250" y="580" font-size="10" style="fill:blue">galeriaFoto</text><path d="M220 40 C240 40 220 590 240 590" style="fill:transparent;stroke:black" /><rect x="460" y="570" width="200" height="40" style="fill:white;stroke:black;stroke-width:1" /><text x="470" y="580" font-size="10" style="fill:blue">foto</text><path d="M440 590 C460 590 440 590 460 590" style="fill:transparent;stroke:black" /><rect x="526" y="570" width="137" height="40" style="fill:green;stroke:black;stroke-width:1" /><text x="536" y="580" font-size="8" style="fill:white">xml/circuito-albert-park-melbourne.png</text><rect x="240" y="670" width="200" height="40" style="fill:white;stroke:black;stroke-width:1" /><text x="250" y="680" font-size="10" style="fill:blue">galeriaVideo</text><path d="M220 40 C240 40 220 690 240 690" style="fill:transparent;stroke:black" /><rect x="240" y="720" width="200" height="40" style="fill:white;stroke:black;stroke-width:1" /><text x="250" y="730" font-size="10" style="fill:blue">coordenadasSalida</text><path d="M220 40 C240 40 220 740 240 740" style="fill:transparent;stroke:black" /><text x="250" y="740" font-size="8" style="fill:black">longitud: 144.968904</text><text x="250" y="750" font-size="8" style="fill:black">latitud: -37.850003</text><text x="250" y="760" font-size="8" style="fill:black">altitud: 4.86</text><rect x="240" y="770" width="200" height="40" style="fill:white;stroke:black;stroke-width:1" /><text x="250" y="780" font-size="10" style="fill:blue">coordenadasTramo</text><path d="M220 40 C240 40 220 790 240 790" style="fill:transparent;stroke:black" /><rect x="460" y="770" width="200" height="40" style="fill:white;stroke:black;stroke-width:1" /><text x="470" y="780" font-size="10" style="fill:blue">coordenadasPunto</text><path d="M440 790 C460 790 440 790 460 790" style="fill:transparent;stroke:black" /><text x="470" y="790" font-size="8" style="fill:black">distancia: 380.36</text><text x="470" y="800" font-size="8" style="fill:black">unidades: metros</text><text x="470" y="810" font-size="8" style="fill:black">numeroSector: 1</text><text x="470" y="820" font-size="8" style="fill:black">longitud: 144.96583333333334</text><text x="470" y="830" font-size="8" style="fill:black">latitud: -37.0975</text><text x="470" y="840" font-size="8" style="fill:black">altitud: 4.15</text><rect x="460" y="820" width="200" height="40" style="fill:white;stroke:black;stroke-width:1" /><text x="470" y="830" font-size="10" style="fill:blue">coordenadasPunto</text><path d="M440 790 C460 790 440 840 460 840" style="fill:transparent;stroke:black" /><text x="470" y="840" font-size="8" style="fill:black">distancia: 161.42</text><text x="470" y="850" font-size="8" style="fill:black">unidades: metros</text><text x="470" y="860" font-size="8" style="fill:black">numeroSector: 1</text><text x="470" y="870" font-size="8" style="fill:black">longitud: 144.96583333333334</text><text x="470" y="880" font-size="8" style="fill:black">latitud: -37.8461111</text><text x="470" y="890" font-size="8" style="fill:black">altitud: 4.68</text><rect x="460" y="870" width="200" height="40" style="fill:white;stroke:black;stroke-width:1" /><text x="470" y="880" font-size="10" style="fill:blue">coordenadasPunto</text><path d="M440 790 C460 790 440 890 460 890" style="fill:transparent;stroke:black" /><text x="470" y="890" font-size="8" style="fill:black">distancia: 543.68</text><text x="470" y="900" font-size="8" style="fill:black">unidades: metros</text><text x="470" y="910" font-size="8" style="fill:black">numeroSector: 1</text><text x="470" y="920" font-size="8" style="fill:black">longitud: 144.96194444444444</text><text x="470" y="930" font-size="8" style="fill:black">latitud: -37.8419444</text><text x="470" y="940" font-size="8" style="fill:black">altitud: 4.72</text><rect x="460" y="920" width="200" height="40" style="fill:white;stroke:black;stroke-width:1" /><text x="470" y="930" font-size="10" style="fill:blue">coordenadasPunto</text><path d="M440 790 C460 790 440 940 460 940" style="fill:transparent;stroke:black" /><text x="470" y="940" font-size="8" style="fill:black">distancia: 141.32</text><text x="470" y="950" font-size="8" style="fill:black">unidades: metros</text><text x="470" y="960" font-size="8" style="fill:black">numeroSector: 1</text><text x="470" y="970" font-size="8" style="fill:black">longitud: 144.9636111111111</text><text x="470" y="980" font-size="8" style="fill:black">latitud: -37.8416667</text><text x="470" y="990" font-size="8" style="fill:black">altitud: 4.64</text><rect x="460" y="970" width="200" height="40" style="fill:white;stroke:black;stroke-width:1" /><text x="470" y="980" font-size="10" style="fill:blue">coordenadasPunto</text><path d="M440 790 C460 790 440 990 460 990" style="fill:transparent;stroke:black" /><text x="470" y="990" font-size="8" style="fill:black">distancia: 218.09</text><text x="470" y="1000" font-size="8" style="fill:black">unidades: metros</text><text x="470" y="1010" font-size="8" style="fill:black">numeroSector: 1</text><text x="470" y="1020" font-size="8" style="fill:black">longitud: 144.9636111111111</text><text x="470" y="1030" font-size="8" style="fill:black">latitud: -37.8397222</text><text x="470" y="1040" font-size="8" style="fill:black">altitud: 5.6</text><rect x="460" y="1020" width="200" height="40" style="fill:white;stroke:black;stroke-width:1" /><text x="470" y="1030" font-size="10" style="fill:blue">coordenadasPunto</text><path d="M440 790 C460 790 440 1040 460 1040" style="fill:transparent;stroke:black" /><text x="470" y="1040" font-size="8" style="fill:black">distancia: 331.75</text><text x="470" y="1050" font-size="8" style="fill:black">unidades: metros</text><text x="470" y="1060" font-size="8" style="fill:black">numeroSector: 1</text><text x="470" y="1070" font-size="8" style="fill:black">longitud: 144.96694444444444</text><text x="470" y="1080" font-size="8" style="fill:black">latitud: -37.8383333</text><text x="470" y="1090" font-size="8" style="fill:black">altitud: 4.85</text><rect x="460" y="1070" width="200" height="40" style="fill:white;stroke:black;stroke-width:1" /><text x="470" y="1080" font-size="10" style="fill:blue">coordenadasPunto</text><path d="M440 790 C460 790 440 1090 460 1090" style="fill:transparent;stroke:black" /><text x="470" y="1090" font-size="8" style="fill:black">distancia: 93.21</text><text x="470" y="1100" font-size="8" style="fill:black">unidades: metros</text><text x="470" y="1110" font-size="8" style="fill:black">numeroSector: 2</text><text x="470" y="1120" font-size="8" style="fill:black">longitud: 144.96777777777777</text><text x="470" y="1130" font-size="8" style="fill:black">latitud: -37.8377778</text><text x="470" y="1140" font-size="8" style="fill:black">altitud: 4.58</text><rect x="460" y="1120" width="200" height="40" style="fill:white;stroke:black;stroke-width:1" /><text x="470" y="1130" font-size="10" style="fill:blue">coordenadasPunto</text><path d="M440 790 C460 790 440 1140 460 1140" style="fill:transparent;stroke:black" /><text x="470" y="1140" font-size="8" style="fill:black">distancia: 88.52</text><text x="470" y="1150" font-size="8" style="fill:black">unidades: metros</text><text x="470" y="1160" font-size="8" style="fill:black">numeroSector: 2</text><text x="470" y="1170" font-size="8" style="fill:black">longitud: 144.9686111111111</text><text x="470" y="1180" font-size="8" style="fill:black">latitud: -37.8383333</text><text x="470" y="1190" font-size="8" style="fill:black">altitud: 4.95</text><rect x="460" y="1170" width="200" height="40" style="fill:white;stroke:black;stroke-width:1" /><text x="470" y="1180" font-size="10" style="fill:blue">coordenadasPunto</text><path d="M440 790 C460 790 440 1190 460 1190" style="fill:transparent;stroke:black" /><text x="470" y="1190" font-size="8" style="fill:black">distancia: 182.2</text><text x="470" y="1200" font-size="8" style="fill:black">unidades: metros</text><text x="470" y="1210" font-size="8" style="fill:black">numeroSector: 2</text><text x="470" y="1220" font-size="8" style="fill:black">longitud: 144.97083333333333</text><text x="470" y="1230" font-size="8" style="fill:black">latitud: -37.8388889</text><text x="470" y="1240" font-size="8" style="fill:black">altitud: 5.19</text><rect x="460" y="1220" width="200" height="40" style="fill:white;stroke:black;stroke-width:1" /><text x="470" y="1230" font-size="10" style="fill:blue">coordenadasPunto</text><path d="M440 790 C460 790 440 1240 460 1240" style="fill:transparent;stroke:black" /><text x="470" y="1240" font-size="8" style="fill:black">distancia: 317.75</text><text x="470" y="1250" font-size="8" style="fill:black">unidades: metros</text><text x="470" y="1260" font-size="8" style="fill:black">numeroSector: 2</text><text x="470" y="1270" font-size="8" style="fill:black">longitud: 144.9713888888889</text><text x="470" y="1280" font-size="8" style="fill:black">latitud: -37.8419444</text><text x="470" y="1290" font-size="8" style="fill:black">altitud: 5.33</text><rect x="460" y="1270" width="200" height="40" style="fill:white;stroke:black;stroke-width:1" /><text x="470" y="1280" font-size="10" style="fill:blue">coordenadasPunto</text><path d="M440 790 C460 790 440 1290 460 1290" style="fill:transparent;stroke:black" /><text x="470" y="1290" font-size="8" style="fill:black">distancia: 356.19</text><text x="470" y="1300" font-size="8" style="fill:black">unidades: metros</text><text x="470" y="1310" font-size="8" style="fill:black">numeroSector: 2</text><text x="470" y="1320" font-size="8" style="fill:black">longitud: 144.97055555555556</text><text x="470" y="1330" font-size="8" style="fill:black">latitud: -37.845</text><text x="470" y="1340" font-size="8" style="fill:black">altitud: 5.16</text><rect x="460" y="1320" width="200" height="40" style="fill:white;stroke:black;stroke-width:1" /><text x="470" y="1330" font-size="10" style="fill:blue">coordenadasPunto</text><path d="M440 790 C460 790 440 1340 460 1340" style="fill:transparent;stroke:black" /><text x="470" y="1340" font-size="8" style="fill:black">distancia: 228.39</text><text x="470" y="1350" font-size="8" style="fill:black">unidades: metros</text><text x="470" y="1360" font-size="8" style="fill:black">numeroSector: 2</text><text x="470" y="1370" font-size="8" style="fill:black">longitud: 144.9713888888889</text><text x="470" y="1380" font-size="8" style="fill:black">latitud: -37.8466667</text><text x="470" y="1390" font-size="8" style="fill:black">altitud: 5.17</text><rect x="460" y="1370" width="200" height="40" style="fill:white;stroke:black;stroke-width:1" /><text x="470" y="1380" font-size="10" style="fill:blue">coordenadasPunto</text><path d="M440 790 C460 790 440 1390 460 1390" style="fill:transparent;stroke:black" /><text x="470" y="1390" font-size="8" style="fill:black">distancia: 104.44</text><text x="470" y="1400" font-size="8" style="fill:black">unidades: metros</text><text x="470" y="1410" font-size="8" style="fill:black">numeroSector: 2</text><text x="470" y="1420" font-size="8" style="fill:black">longitud: 144.97222222222223</text><text x="470" y="1430" font-size="8" style="fill:black">latitud: -37.8475</text><text x="470" y="1440" font-size="8" style="fill:black">altitud: 5.32</text><rect x="460" y="1420" width="200" height="40" style="fill:white;stroke:black;stroke-width:1" /><text x="470" y="1430" font-size="10" style="fill:blue">coordenadasPunto</text><path d="M440 790 C460 790 440 1440 460 1440" style="fill:transparent;stroke:black" /><text x="470" y="1440" font-size="8" style="fill:black">distancia: 103.5</text><text x="470" y="1450" font-size="8" style="fill:black">unidades: metros</text><text x="470" y="1460" font-size="8" style="fill:black">numeroSector: 3</text><text x="470" y="1470" font-size="8" style="fill:black">longitud: 144.97333333333333</text><text x="470" y="1480" font-size="8" style="fill:black">latitud: -37.8480556</text><text x="470" y="1490" font-size="8" style="fill:black">altitud: 5.21</text><rect x="460" y="1470" width="200" height="40" style="fill:white;stroke:black;stroke-width:1" /><text x="470" y="1480" font-size="10" style="fill:blue">coordenadasPunto</text><path d="M440 790 C460 790 440 1490 460 1490" style="fill:transparent;stroke:black" /><text x="470" y="1490" font-size="8" style="fill:black">distancia: 121.34</text><text x="470" y="1500" font-size="8" style="fill:black">unidades: metros</text><text x="470" y="1510" font-size="8" style="fill:black">numeroSector: 3</text><text x="470" y="1520" font-size="8" style="fill:black">longitud: 144.97472222222223</text><text x="470" y="1530" font-size="8" style="fill:black">latitud: -37.8480556</text><text x="470" y="1540" font-size="8" style="fill:black">altitud: 5.13</text><rect x="460" y="1520" width="200" height="40" style="fill:white;stroke:black;stroke-width:1" /><text x="470" y="1530" font-size="10" style="fill:blue">coordenadasPunto</text><path d="M440 790 C460 790 440 1540 460 1540" style="fill:transparent;stroke:black" /><text x="470" y="1540" font-size="8" style="fill:black">distancia: 297.1</text><text x="470" y="1550" font-size="8" style="fill:black">unidades: metros</text><text x="470" y="1560" font-size="8" style="fill:black">numeroSector: 3</text><text x="470" y="1570" font-size="8" style="fill:black">longitud: 144.97722222222222</text><text x="470" y="1580" font-size="8" style="fill:black">latitud: -37.8497222</text><text x="470" y="1590" font-size="8" style="fill:black">altitud: 5.73</text><rect x="460" y="1570" width="200" height="40" style="fill:white;stroke:black;stroke-width:1" /><text x="470" y="1580" font-size="10" style="fill:blue">coordenadasPunto</text><path d="M440 790 C460 790 440 1590 460 1590" style="fill:transparent;stroke:black" /><text x="470" y="1590" font-size="8" style="fill:black">distancia: 404.27</text><text x="470" y="1600" font-size="8" style="fill:black">unidades: metros</text><text x="470" y="1610" font-size="8" style="fill:black">numeroSector: 3</text><text x="470" y="1620" font-size="8" style="fill:black">longitud: 144.97833333333332</text><text x="470" y="1630" font-size="8" style="fill:black">latitud: -37.8533333</text><text x="470" y="1640" font-size="8" style="fill:black">altitud: 5.87</text><rect x="460" y="1620" width="200" height="40" style="fill:white;stroke:black;stroke-width:1" /><text x="470" y="1630" font-size="10" style="fill:blue">coordenadasPunto</text><path d="M440 790 C460 790 440 1640 460 1640" style="fill:transparent;stroke:black" /><text x="470" y="1640" font-size="8" style="fill:black">distancia: 254.17</text><text x="470" y="1650" font-size="8" style="fill:black">unidades: metros</text><text x="470" y="1660" font-size="8" style="fill:black">numeroSector: 3</text><text x="470" y="1670" font-size="8" style="fill:black">longitud: 144.97555555555556</text><text x="470" y="1680" font-size="8" style="fill:black">latitud: -37.8538889</text><text x="470" y="1690" font-size="8" style="fill:black">altitud: 4.7</text><rect x="460" y="1670" width="200" height="40" style="fill:white;stroke:black;stroke-width:1" /><text x="470" y="1680" font-size="10" style="fill:blue">coordenadasPunto</text><path d="M440 790 C460 790 440 1690 460 1690" style="fill:transparent;stroke:black" /><text x="470" y="1690" font-size="8" style="fill:black">distancia: 250.86</text><text x="470" y="1700" font-size="8" style="fill:black">unidades: metros</text><text x="470" y="1710" font-size="8" style="fill:black">numeroSector: 3</text><text x="470" y="1720" font-size="8" style="fill:black">longitud: 144.97666666666666</text><text x="470" y="1730" font-size="8" style="fill:black">latitud: -37.8519444</text><text x="470" y="1740" font-size="8" style="fill:black">altitud: 4.76</text><rect x="460" y="1720" width="200" height="40" style="fill:white;stroke:black;stroke-width:1" /><text x="470" y="1730" font-size="10" style="fill:blue">coordenadasPunto</text><path d="M440 790 C460 790 440 1740 460 1740" style="fill:transparent;stroke:black" /><text x="470" y="1740" font-size="8" style="fill:black">distancia: 154.4</text><text x="470" y="1750" font-size="8" style="fill:black">unidades: metros</text><text x="470" y="1760" font-size="8" style="fill:black">numeroSector: 3</text><text x="470" y="1770" font-size="8" style="fill:black">longitud: 144.9725</text><text x="470" y="1780" font-size="8" style="fill:black">latitud: -37.8527778</text><text x="470" y="1790" font-size="8" style="fill:black">altitud: 4.32</text><rect x="460" y="1770" width="200" height="40" style="fill:white;stroke:black;stroke-width:1" /><text x="470" y="1780" font-size="10" style="fill:blue">coordenadasPunto</text><path d="M440 790 C460 790 440 1790 460 1790" style="fill:transparent;stroke:black" /><text x="470" y="1790" font-size="8" style="fill:black">distancia: 451.86</text><text x="470" y="1800" font-size="8" style="fill:black">unidades: metros</text><text x="470" y="1810" font-size="8" style="fill:black">numeroSector: 3</text><text x="470" y="1820" font-size="8" style="fill:black">longitud: 144.968904</text><text x="470" y="1830" font-size="8" style="fill:black">latitud: -37.850003</text><text x="470" y="1840" font-size="8" style="fill:black">altitud: 4.86</text></svg>