<?xml version="1.0" standalone="no"?>
<!DOCTYPE svg PUBLIC "-//W3C//DTD SVG 20010904//EN"
 "http://www.w3.org/TR/2001/REC-SVG-20010904/DTD/svg10.dtd">
<svg version="1.0" xmlns="http://www.w3.org/2000/svg"
 width="512.000000pt" height="512.000000pt" viewBox="0 0 512.000000 512.000000"
 preserveAspectRatio="xMidYMid meet">

<g transform="translate(0.000000,512.000000) scale(0.100000,-0.100000)"
fill="#000000" stroke="none">
<path d="M1824 4006 c-17 -7 -42 -27 -55 -44 -20 -26 -34 -33 -94 -42 -266
-42 -601 -239 -923 -543 -186 -175 -322 -258 -550 -338 -108 -37 -162 -73
-185 -122 -20 -41 -21 -72 -5 -118 13 -39 409 -738 445 -786 64 -87 186 -112
293 -61 184 89 413 289 565 493 45 61 109 135 143 167 110 101 295 197 486
253 95 27 272 65 303 65 13 0 37 -35 83 -116 36 -63 64 -118 63 -122 -1 -4
-176 -309 -389 -677 -213 -369 -396 -691 -407 -716 -35 -81 -5 -153 77 -184
54 -21 114 -8 148 33 13 15 183 305 378 645 195 339 357 616 360 616 3 0 165
-277 360 -616 195 -339 365 -629 378 -645 49 -58 156 -57 206 2 27 33 42 86
33 122 -4 13 -187 336 -407 718 -221 382 -402 698 -403 702 -1 4 27 59 63 122
46 81 70 115 83 116 73 1 352 -74 485 -131 203 -86 318 -179 460 -369 68 -91
198 -228 292 -306 79 -65 238 -165 297 -186 90 -31 188 -7 246 62 35 41 441
756 457 804 16 50 7 99 -25 142 -31 40 -57 55 -173 95 -224 79 -359 163 -544
336 -322 304 -656 501 -923 543 -61 10 -73 16 -97 45 -51 62 -141 69 -196 16
-15 -14 -153 -243 -306 -508 -153 -266 -282 -483 -286 -483 -4 0 -135 221
-291 491 -173 300 -294 498 -310 510 -36 25 -97 32 -135 15z m1756 -216 c76
-27 180 -77 180 -88 -1 -4 -27 -52 -60 -107 l-58 -100 -59 2 c-60 2 -347 87
-340 101 3 4 34 59 71 123 l66 117 68 -13 c37 -7 96 -23 132 -35z m-1802 -17
c17 -32 48 -86 67 -120 l35 -61 -123 -41 c-67 -23 -155 -47 -195 -55 l-73 -14
-23 37 c-39 63 -106 179 -106 185 0 7 92 54 144 73 73 27 170 52 206 52 33 1
38 -3 68 -56z m-221 -417 c35 -59 63 -108 63 -110 0 -2 -19 -9 -42 -16 -64
-19 -165 -72 -235 -123 -75 -56 -136 -130 -176 -215 -16 -35 -33 -60 -37 -55
-3 4 -44 73 -89 152 -78 134 -82 145 -70 168 28 53 175 170 279 223 57 30 222
90 235 86 5 -1 38 -51 72 -110z m2164 85 c105 -35 174 -70 266 -133 72 -50
173 -148 173 -168 0 -6 -39 -79 -87 -162 l-87 -151 23 -41 c13 -22 39 -64 58
-93 55 -84 246 -294 256 -282 2 2 43 73 91 157 49 83 90 152 92 152 2 0 34
-20 71 -44 37 -24 114 -67 171 -95 57 -29 102 -56 100 -61 -13 -37 -166 -290
-175 -290 -18 0 -192 83 -271 129 -39 22 -74 41 -79 41 -4 0 -35 -47 -68 -105
-33 -58 -65 -105 -71 -105 -29 0 -227 206 -327 340 l-26 35 75 128 c41 71 74
133 74 139 0 23 -73 147 -116 196 -69 79 -173 144 -336 210 l-27 11 51 88 c62
107 78 133 81 133 2 0 41 -13 88 -29z m-2823 -213 l51 -86 -49 -79 c-76 -123
-269 -348 -284 -332 -9 9 -176 302 -174 303 2 1 36 21 75 44 92 54 215 147
273 206 24 25 47 43 51 38 3 -4 29 -46 57 -94z m1192 4 c30 -53 70 -122 88
-154 l32 -57 -57 -11 c-32 -6 -112 -25 -178 -42 -66 -16 -129 -32 -141 -35
-18 -4 -33 16 -107 143 l-85 148 116 33 c65 18 144 41 177 52 95 32 93 32 155
-77z m1122 68 c51 -16 132 -40 180 -52 l86 -23 -83 -145 c-46 -80 -89 -146
-94 -148 -5 -2 -39 6 -75 17 -36 11 -120 32 -188 46 -67 14 -123 27 -124 28
-2 2 98 178 153 270 12 20 29 37 38 37 8 0 56 -13 107 -30z m1258 -134 c36
-27 97 -66 135 -89 39 -22 71 -42 73 -43 3 -1 -166 -295 -175 -304 -3 -3 -42
34 -87 81 -82 87 -172 206 -218 289 l-26 45 55 93 55 93 62 -59 c33 -32 90
-80 126 -106z m-3275 -438 c26 -46 58 -101 71 -123 l23 -41 -60 -79 c-67 -88
-154 -180 -241 -256 l-56 -50 -63 111 c-35 60 -67 110 -72 110 -5 0 -36 -16
-68 -35 -66 -41 -264 -135 -282 -135 -9 0 -162 252 -175 290 -2 5 43 32 100
61 57 28 134 71 172 96 38 24 72 41 76 36 4 -4 45 -73 91 -153 45 -80 84 -147
86 -149 6 -8 122 111 190 194 35 44 83 110 105 147 22 37 43 66 48 63 4 -2 28
-42 55 -87z"/>
</g>
</svg>
